<?xml version="1.0" standalone="no"?>
<!DOCTYPE svg PUBLIC "-//W3C//DTD SVG 20010904//EN"
 "http://www.w3.org/TR/2001/REC-SVG-20010904/DTD/svg10.dtd">
<svg version="1.0" xmlns="http://www.w3.org/2000/svg"
 width="4500.000000pt" height="4500.000000pt" viewBox="0 0 4500.000000 4500.000000"
 preserveAspectRatio="xMidYMid meet">

<g transform="translate(0.000000,4500.000000) scale(0.100000,-0.100000)"
fill="#FFFFFF" stroke="none">
<path d="M0 22500 l0 -22500 22500 0 22500 0 0 22500 0 22500 -22500 0 -22500
0 0 -22500z m15880 10426 c1490 -130 2787 -584 4043 -1413 l188 -124 172 114
c1055 702 2215 1157 3417 1341 211 33 500 62 755 77 249 15 838 6 1095 -15
1236 -105 2429 -446 3560 -1017 356 -179 749 -410 1017 -596 l92 -63 163 81
c1343 672 2801 941 4343 798 1473 -135 2817 -643 4060 -1533 234 -167 554
-417 597 -465 103 -117 83 -129 -238 -150 -652 -43 -1365 -195 -1962 -417
-757 -283 -1417 -678 -2032 -1218 -157 -137 -501 -483 -639 -641 -460 -526
-870 -1123 -1221 -1775 -546 -1014 -884 -2239 -1009 -3650 -54 -607 -79 -1439
-106 -3555 -28 -2179 -42 -2540 -121 -3055 -256 -1673 -1208 -2956 -2524
-3402 -345 -116 -642 -163 -1045 -163 -263 0 -381 9 -600 46 -967 161 -1807
730 -2360 1599 -99 155 -274 502 -342 676 -176 450 -280 916 -323 1444 -58
726 -109 1677 -131 2453 -13 468 -7 1844 10 2197 76 1559 229 2766 507 3995
285 1260 785 2450 1472 3500 596 912 1336 1721 2160 2364 79 61 139 111 134
111 -18 0 -421 -139 -557 -193 -311 -121 -715 -318 -1015 -493 -1170 -683
-2199 -1719 -2941 -2959 -581 -969 -945 -1992 -1148 -3225 -147 -892 -190
-1653 -221 -3955 -38 -2779 -43 -2992 -86 -3470 -132 -1485 -752 -2719 -1732
-3453 -168 -125 -299 -206 -497 -308 -481 -247 -974 -364 -1530 -364 -773 1
-1479 222 -2092 657 -834 591 -1405 1545 -1613 2690 -50 277 -78 574 -130
1393 -73 1150 -95 1903 -87 2975 5 762 11 946 42 1500 93 1630 347 3260 691
4425 501 1699 1391 3243 2567 4457 77 79 133 141 126 139 -8 -2 -86 -28 -174
-57 -1267 -414 -2305 -1160 -3156 -2269 -466 -607 -948 -1405 -1225 -2027
-499 -1123 -774 -2410 -844 -3943 -28 -635 -46 -1411 -65 -2935 -29 -2261 -43
-2669 -111 -3175 -155 -1156 -622 -2149 -1335 -2846 -591 -577 -1315 -911
-2114 -975 -199 -16 -562 -6 -760 20 -840 113 -1552 476 -2142 1092 -599 625
-996 1512 -1123 2504 -41 321 -116 1483 -150 2320 -44 1081 -38 2273 15 3240
75 1352 251 2648 515 3796 384 1665 1115 3181 2152 4466 311 385 811 911 1158
1215 1122 987 2371 1660 3705 1996 509 129 990 202 1540 236 168 10 1031 -3
1205 -18z"/>
</g>
</svg>
